<svg width="115" height="15" viewBox="0 0 115 15" fill="none" xmlns="http://www.w3.org/2000/svg">
<path d="M4.33821 8.2693C5.7579 8.41405 6.54662 9.0835 6.54662 10.1691C6.54662 11.0376 5.7579 11.7794 4.75229 11.7794C3.88469 11.7794 3.19456 11.5804 2.52415 10.8024L0.000244141 12.5032C1.40022 13.9144 3.07625 14.4753 4.75229 14.4753C7.33534 14.4753 9.72122 12.5936 9.72122 9.97008C9.72122 7.36463 7.65083 5.8086 5.14664 5.66385C3.58892 5.57338 3.09597 5.01249 3.09597 4.39731C3.09597 3.65548 3.64808 3.20315 4.45651 3.20315C4.96918 3.20315 5.61988 3.49264 6.01424 3.87261L8.41983 2.26229C7.29591 1.03194 5.91565 0.52533 4.45651 0.52533C2.42556 0.52533 0.13827 2.13564 0.13827 4.41541C0.13827 6.53233 1.79458 7.9979 4.33821 8.2693Z" fill="white"/>
<path d="M21.0722 9.68058C21.0722 8.46833 21.9989 7.47319 23.2214 7.47319C24.3454 7.47319 25.2721 8.28739 25.2721 9.68058V14.2401H28.0523V9.68058C28.0523 7.03895 26.5735 4.90393 23.5172 4.90393C22.4919 4.90393 20.9144 5.19342 19.968 6.3514C19.3764 5.5191 18.0553 4.90393 16.5962 4.90393C15.7286 4.90393 14.6047 5.22961 14.1512 5.73622V5.10296H11.3512V14.2401H14.1512V9.68058C14.1512 8.46833 15.0779 7.47319 16.123 7.47319C17.3849 7.47319 18.2722 8.10646 18.2722 9.68058V14.2401H21.0722V9.68058Z" fill="white"/>
<path d="M36.7959 5.10296V5.73622C36.3621 5.30198 35.2579 4.90393 34.3706 4.90393C31.7086 4.90393 29.4805 7.03895 29.4805 9.68058C29.4805 12.286 31.6495 14.4391 34.3706 14.4391C35.2776 14.4391 36.3621 14.1135 36.7959 13.5888V14.2401H39.5959V5.10296H36.7959ZM34.6466 11.888C33.365 11.888 32.3199 10.9833 32.3199 9.68058C32.3199 8.39595 33.365 7.47319 34.6466 7.47319C35.948 7.47319 36.9142 8.39595 36.9142 9.68058C36.9142 10.9833 35.948 11.888 34.6466 11.888Z" fill="white"/>
<path d="M47.2622 4.94012C47.0058 4.90393 46.8086 4.90393 46.572 4.90393C45.803 4.90393 44.9749 5.13914 44.3636 5.73622V5.10296H41.5636V14.2401H44.3636V9.68058C44.3636 8.21502 45.2904 7.47319 46.3748 7.47319C46.6903 7.47319 46.9861 7.50938 47.2622 7.59984V4.94012Z" fill="white"/>
<path d="M54.3323 7.47319V5.10296H51.9661V2.04517L49.1662 3.90879V5.10296H47.6676V7.47319H49.1662V10.4586C49.1662 12.8288 51.2957 14.4391 54.2731 14.4391V11.888C52.9915 11.888 51.9661 11.4175 51.9661 10.3862V7.47319H54.3323Z" fill="white"/>
<path d="M55.6204 0.760543V14.2401H58.4204V0.760543H55.6204Z" fill="white"/>
<path d="M67.5338 10.9652C67.0803 11.6166 66.2324 11.888 65.3845 11.888C65.0888 11.888 64.8127 11.8699 64.5564 11.7794L70.1169 8.12455C69.5056 6.42377 67.6127 4.90393 65.1479 4.90393C62.2888 4.90393 59.9818 7.03895 59.9818 9.68058C59.9818 12.286 62.3874 14.4391 65.3845 14.4391C67.1592 14.4391 68.9141 13.6973 69.7619 12.5393L67.5338 10.9652ZM62.8212 9.68058C62.8212 8.39595 63.8663 7.47319 65.1479 7.47319C65.6803 7.47319 66.1338 7.63603 66.5282 7.90743L62.9001 10.2777C62.8409 10.0967 62.8212 9.8977 62.8212 9.68058Z" fill="white"/>
<path d="M78.4271 5.10296V5.73622C77.9933 5.30198 76.8891 4.90393 76.0018 4.90393C73.3398 4.90393 71.1117 7.03895 71.1117 9.68058C71.1117 12.286 73.2807 14.4391 76.0018 14.4391C76.9088 14.4391 77.9933 14.1135 78.4271 13.5888V14.2401H81.227V5.10296H78.4271ZM76.2778 11.888C74.9962 11.888 73.9511 10.9833 73.9511 9.68058C73.9511 8.39595 74.9962 7.47319 76.2778 7.47319C77.5792 7.47319 78.5454 8.39595 78.5454 9.68058C78.5454 10.9833 77.5792 11.888 76.2778 11.888Z" fill="white"/>
<path d="M90.0961 0.760543V5.73622C89.6623 5.30198 88.5581 4.90393 87.6708 4.90393C85.0089 4.90393 82.7808 7.03895 82.7808 9.68058C82.7808 12.286 84.9497 14.4391 87.6708 14.4391C88.5779 14.4391 89.6623 14.1135 90.0961 13.5888V14.2401H92.8961V0.760543H90.0961ZM87.9469 11.888C86.6652 11.888 85.6202 10.9833 85.6202 9.68058C85.6202 8.39595 86.6652 7.47319 87.9469 7.47319C89.2483 7.47319 90.2144 8.39595 90.2144 9.68058C90.2144 10.9833 89.2483 11.888 87.9469 11.888Z" fill="white"/>
<path d="M96.5794 11.707C95.6723 11.707 95.0611 12.3222 95.0611 13.1002C95.0611 13.8421 95.6723 14.4753 96.5794 14.4753C97.5061 14.4753 98.0976 13.8421 98.0976 13.1002C98.0976 12.3222 97.4864 11.707 96.5794 11.707Z" fill="white"/>
<path d="M107.176 5.10296V5.73622C106.742 5.30198 105.638 4.90393 104.751 4.90393C102.089 4.90393 99.8607 7.03895 99.8607 9.68058C99.8607 12.286 102.03 14.4391 104.751 14.4391C105.658 14.4391 106.742 14.1135 107.176 13.5888V14.2401H109.976V5.10296H107.176ZM105.027 11.888C103.745 11.888 102.7 10.9833 102.7 9.68058C102.7 8.39595 103.745 7.47319 105.027 7.47319C106.328 7.47319 107.294 8.39595 107.294 9.68058C107.294 10.9833 106.328 11.888 105.027 11.888Z" fill="white"/>
<path d="M113.324 3.49264C114.271 3.49264 115 2.82319 115 2.02708C115 1.28525 114.271 0.615796 113.324 0.615796C112.457 0.615796 111.707 1.30334 111.707 2.02708C111.707 2.82319 112.457 3.49264 113.324 3.49264ZM114.744 5.10296H111.944V14.2401H114.744V5.10296Z" fill="white"/>
</svg>
