<svg width="35" height="31" viewBox="0 0 35 31" fill="none" xmlns="http://www.w3.org/2000/svg">
<path d="M0 3.90083C0 1.74646 1.91965 0 4.28765 0H29.7864C32.1544 0 34.074 1.74646 34.074 3.90083V27.0992C34.074 29.2535 32.1544 31 29.7864 31H4.28765C1.91965 31 0 29.2535 0 27.0992V3.90083Z" fill="#6E58F1"/>
<path d="M4.9209 13.1125C4.9209 10.4385 7.29447 8.27081 10.2224 8.27081H10.5273C11.7659 8.27081 12.7699 9.18777 12.7699 10.3189V15.9062C12.7699 17.0373 11.7659 17.9542 10.5273 17.9542H10.2224C7.29447 17.9542 4.9209 15.7865 4.9209 13.1125Z" fill="white"/>
<path d="M13.9727 9.12576C13.9727 8.60647 14.3066 8.13561 14.8255 7.92329L22.543 4.76536C23.4975 4.37478 24.5757 5.01259 24.5757 5.96783V20.3617C24.5757 21.3231 23.4848 21.9608 22.5289 21.5583L14.8114 18.3088C14.3001 18.0936 13.9727 17.6264 13.9727 17.1122V16.4459C13.9727 15.8977 14.3443 15.4067 14.9059 15.2131L19.2074 13.7304C19.8296 13.5159 19.8296 12.7121 19.2074 12.4976L14.9059 11.0148C14.3443 10.8212 13.9727 10.3303 13.9727 9.78208V9.12576Z" fill="white"/>
<path d="M29.1518 14.2656V13.9722C29.1518 12.3515 27.7132 11.0378 25.9387 11.0378C25.85 11.0378 25.7781 11.1035 25.7781 11.1845V17.0532C25.7781 17.1343 25.85 17.2 25.9387 17.2C27.7132 17.2 29.1518 15.8862 29.1518 14.2656Z" fill="white"/>
<path d="M10.2124 19.8287C10.2124 19.5406 10.4681 19.3071 10.7836 19.3071H13.7723C14.0877 19.3071 14.3435 19.5406 14.3435 19.8287V24.4632C14.3435 25.505 13.4187 26.3496 12.2779 26.3496L-nan -nanL12.2779 26.3496C11.1372 26.3496 10.2124 25.505 10.2124 24.4632V19.8287Z" fill="white"/>
</svg>
